# xmcd
#
# Track frame offsets:
#	150
#	19019
#	36207
#	52740
#	68174
#	98886
#	115977
#	132912
#	149502
#	164766
#	179822
#	215875
#
# Disc length: 3108 seconds
#
# Revision: 0
# Processed by: cddbd v1.5.1PL0 Copyright (c) Steve Scherf et al.
# Submitted via: audiograbber 1.83.01
#
DISCID=b90c220c
DTITLE=Peter Stasak - laska svetom leti
DYEAR=2004
DGENRE=Blues
TTITLE0=Laska svetom leti
TTITLE1=Spomienka na Dalmaciu
TTITLE2=Hajde Roma
TTITLE3=Pre otca
TTITLE4=Hitmix
TTITLE5=Macho
TTITLE6=Jeden den
TTITLE7=Ty si napev moj
TTITLE8=Laska nie je skupa
TTITLE9=Takto to citim
TTITLE10=Hitmix
TTITLE11=Zijem zijem ... (bonus)
EXTD=Slovak
EXTT0=
EXTT1=
EXTT2=
EXTT3=
EXTT4=
EXTT5=
EXTT6=
EXTT7=
EXTT8=
EXTT9=
EXTT10=
EXTT11=
PLAYORDER=
